<svg xmlns="http://www.w3.org/2000/svg" xmlns:xlink="http://www.w3.org/1999/xlink" version="1.1" x="0px" y="0px" viewBox="0 0 100 125" enable-background="new 0 0 100 100" xml:space="preserve"><path d="M57.141,44.545c1.514-5.443,3.451-12.066,1.102-17.621c-2.229-5.267-9.755-5.633-13.986-4.859  c-8.067,1.484-19.24,9.137-17.848,20.242c0.999,7.978,7.838,17.188,7.606,24.262c-0.2,6.028-3.737,12.619-1.96,18.549  c2.458,8.199,14.467,10.94,19.071,3.679c6.422-10.131,0.402-23.418,1.811-34.651C53.32,51.099,56.328,47.462,57.141,44.545z   M39.184,47.941c-2.988-0.885-11.61-4.67-1.841-17.247c5.285,3.584,7.32,6.738,7.696,9.346c-2.525,0.905-4.266,2.664-4.048,5.847  c-1.376-3.273-2.457-7.8-2.921-10.623C37.837,38.562,38.324,44.426,39.184,47.941z M43.997,49.748  c1.028-2.003,2.353-3.809,4.029-5.335c-2.057,1.138-3.886,2.582-5.459,4.319c-0.729-2.021-2.24-8.596,9.053-8.234  C51.949,50.825,46.48,50.444,43.997,49.748z"/><path d="M54.127,19.073c2.816,0.169,5.26-2.617,5.457-6.224c0.199-3.607-1.924-6.669-4.736-6.841  c-2.819-0.169-5.262,2.617-5.461,6.226C49.189,15.841,51.312,18.9,54.127,19.073z"/><path d="M44.048,18.283c1.96,0.116,3.662-1.824,3.801-4.337c0.137-2.513-1.343-4.646-3.303-4.764  c-1.961-0.118-3.663,1.822-3.801,4.337C40.608,16.028,42.089,18.164,44.048,18.283z"/><path d="M36.319,20.959c1.813,0.109,3.385-1.682,3.513-4.003c0.129-2.32-1.236-4.292-3.049-4.404  c-1.814-0.108-3.386,1.689-3.512,4.008C33.141,18.882,34.507,20.853,36.319,20.959z"/><path d="M30.658,24.577c1.481-0.115,2.571-1.746,2.434-3.644c-0.136-1.895-1.446-3.344-2.928-3.226  c-1.48,0.12-2.568,1.752-2.432,3.65C27.863,23.248,29.173,24.694,30.658,24.577z"/><path d="M26.242,29.189c1.359-0.326,2.158-2,1.779-3.738c-0.377-1.745-1.788-2.899-3.147-2.573c-1.362,0.322-2.158,1.997-1.78,3.741  C23.472,28.359,24.879,29.512,26.242,29.189z"/><path d="M70.01,58.538l7.73-7.732c0.213-0.212,0.324-0.495,0.324-0.781c0-0.142-0.027-0.287-0.084-0.423  c-0.172-0.412-0.574-0.681-1.02-0.681h-5.523V24.617c0-0.61-0.496-1.105-1.105-1.105h-2.209c-0.613,0-1.105,0.495-1.105,1.105V48.92  h-5.521c-0.449,0-0.85,0.269-1.023,0.681c-0.059,0.136-0.084,0.281-0.084,0.423c0,0.286,0.111,0.569,0.324,0.781l7.734,7.732  C68.877,58.97,69.576,58.97,70.01,58.538z"/>

</svg>