<svg xmlns="http://www.w3.org/2000/svg"
 xmlns:xlink="http://www.w3.org/1999/xlink"
 version="1.0" x="0px" y="0px" viewBox="0 0 100 125" enable-background="orange" xml:space="preserve"><path d="M21.191,94.955c-1.924,0-3.486-1.566-3.486-3.486V78.673c0-1.92,1.562-3.486,3.486-3.486h6.972  c1.92,0,3.486,1.566,3.486,3.486v12.797c0,1.92-1.566,3.486-3.486,3.486H21.191z M56.051,94.955c-1.924,0-3.486-1.566-3.486-3.486  V75.187c0-1.92,1.562-3.486,3.486-3.486h6.972c1.92,0,3.486,1.566,3.486,3.486v16.283c0,1.92-1.566,3.486-3.486,3.486H56.051z   M73.481,94.955c-1.924,0-3.486-1.566-3.486-3.486V61.243c0-1.92,1.562-3.486,3.486-3.486h6.972c1.92,0,3.486,1.566,3.486,3.486  v30.227c0,1.92-1.566,3.486-3.486,3.486H73.481z M76.966,38.117c-3.489,0-6.318,2.829-6.318,6.318c0,0.63,0.095,1.237,0.267,1.812  l-9.112,8.946c-0.704-0.271-1.466-0.426-2.266-0.426c-1.757,0-3.346,0.719-4.491,1.877l-6.65-2.329  c-0.278-3.054-2.727-5.477-5.791-5.716c-0.549,0.445-1.152,0.861-1.824,1.239c0.005,0.063,0.009,0.122,0.011,0.179  c0.025,0.619,0.214,2.458,0.432,4.589c0.246,2.407,0.459,4.591,0.641,6.587c0.082,0.003,0.16,0.02,0.242,0.02  c1.658,0,3.162-0.644,4.289-1.688l6.887,2.412c0.416,3.087,3.054,5.469,6.255,5.469c3.489,0,6.318-2.829,6.318-6.318  c0-0.625-0.094-1.227-0.263-1.796l9.123-8.956c0.7,0.268,1.457,0.42,2.251,0.42c3.49,0,6.318-2.829,6.318-6.318  C83.285,40.946,80.456,38.117,76.966,38.117z M33.63,56.069l-5.011,2.423c-1.081-0.865-2.45-1.386-3.943-1.386  c-3.49,0-6.318,2.829-6.318,6.318s2.829,6.318,6.318,6.318c3.45,0,6.249-2.766,6.312-6.201l3.061-1.48  C34.01,60.188,33.881,58.182,33.63,56.069z M60.076,5.28C46.169,9.485,39.281,16.458,36.36,22.187  c2.381,2.304,4.145,4.541,5.438,6.513c1.447-4.033,4.29-9.835,9.865-15.53c-5.289,7.003-7.426,14.022-8.314,18.161  c0.768,1.461,1.365,2.928,1.82,4.362c2.939,1.35,10.432,0.791,12.422-6.057C61.106,17.539,57.102,11.976,60.076,5.28z   M45.593,64.729h-6.608c-0.53-6.497-1.31-13.017-1.374-14.582c-0.012-0.309-0.222-1.645-0.253-2.199  c-0.152-0.047,4.005-1.161,5.25-4.511c2.005-5.394-4.161-25.095-36.201-32.968c4.542,8.924-0.523,16.804,5.144,33.063  c2.214,6.352,7.841,8.42,12.389,8.42c3.308,0,6.045-1.094,6.481-2.43c0.665-1.166,1.247-2.715,0.593-5.069  C29.45,38.825,26,29.599,18.454,20.632c13.191,12.126,16.35,25.218,16.867,27.325c0.012,0,0.552,2.112,0.556,2.112  c0,0,0-0.001,0-0.002c1.161,5.581,1.458,10.676,1.348,14.958c-1.229,0.54-2.09,1.766-2.09,3.19v23.255  c0,1.92,1.562,3.486,3.486,3.486h6.972c1.92,0,3.486-1.566,3.486-3.486V68.215C49.079,66.294,47.513,64.729,45.593,64.729z"/>

</svg>